# xmcd
# 
# Track frame offsets:
#	150
#	16800
#	32307
#	46797
#	66097
#	79140
#	97645
#	113042
#	128572
#	147702
#	162660
#	177915
#	189785
#	201917
#	219240
#	231217
#
# Disc length: 3259 seconds
#
# Revision: 1
# Processed by: cddbd v1.4PL0 Copyright (c) Steve Scherf et al.
# Submitted via: Audio-CD-Archiv 2.10.441
#
DISCID=c90cb910
DTITLE=Marion Williams - Surely is god able
DYEAR=1900
DGENRE=blues
TTITLE0=the new you've got to move
TTITLE1=all along the highway
TTITLE2=surely is god able
TTITLE3=tramp this world by myself
TTITLE4=didn't it rain
TTITLE5=he never left me alone
TTITLE6=my life will be sweeter
TTITLE7=bad news, bad times
TTITLE8=move on a little bit higher
TTITLE9=sign of judgement
TTITLE10=what a friend
TTITLE11=amazing grace
TTITLE12=i don't know why
TTITLE13=the day is past and gone
TTITLE14=little wooden church
TTITLE15=up above my head
EXTD=
EXTT0=
EXTT1=
EXTT2=
EXTT3=
EXTT4=
EXTT5=
EXTT6=
EXTT7=
EXTT8=
EXTT9=
EXTT10=
EXTT11=
EXTT12=
EXTT13=
EXTT14=
EXTT15=
PLAYORDER=
